# Made in Blockbench 4.12.5
mtllib materials.mtl

o Center post
v 0.125 1 0.125
v 0.125 1 -0.125
v 0.125 0 0.125
v 0.125 0 -0.125
v -0.125 1 -0.125
v -0.125 1 0.125
v -0.125 0 -0.125
v -0.125 0 0.125
vt 0.375 1
vt 0.625 1
vt 0.625 0
vt 0.375 0
vt 0.375 1
vt 0.625 1
vt 0.625 0
vt 0.375 0
vt 0.375 1
vt 0.625 1
vt 0.625 0
vt 0.375 0
vt 0.375 1
vt 0.625 1
vt 0.625 0
vt 0.375 0
vt 0.375 0.625
vt 0.625 0.625
vt 0.625 0.375
vt 0.375 0.375
vt 0.375 0.625
vt 0.625 0.625
vt 0.625 0.375
vt 0.375 0.375
vn 0 0 -1
vn 1 0 0
vn 0 0 1
vn -1 0 0
vn 0 1 0
vn 0 -1 0
usemtl m_4363006c-1712-a726-afa1-d5f712ff487b
f 4/4/1 7/3/1 5/2/1 2/1/1
f 3/8/2 4/7/2 2/6/2 1/5/2
f 8/12/3 3/11/3 1/10/3 6/9/3
f 7/16/4 8/15/4 6/14/4 5/13/4
f 6/20/5 1/19/5 2/18/5 5/17/5
f 7/24/6 4/23/6 3/22/6 8/21/6
o top bar
v 0.0625 0.9375 0.0625
v 0.0625 0.9375 -0.5
v 0.0625 0.75 0.0625
v 0.0625 0.75 -0.5
v -0.0625 0.9375 -0.5
v -0.0625 0.9375 0.0625
v -0.0625 0.75 -0.5
v -0.0625 0.75 0.0625
vt 0.4375 0.9375
vt 0.5625 0.9375
vt 0.5625 0.75
vt 0.4375 0.75
vt 0 0.9375
vt 0.5625 0.9375
vt 0.5625 0.75
vt 0 0.75
vt 0 0.9375
vt 0.5625 0.9375
vt 0.5625 0.75
vt 0 0.75
vt 0.4375 1
vt 0.5625 1
vt 0.5625 0.4375
vt 0.4375 0.4375
vt 0.4375 1
vt 0.5625 1
vt 0.5625 0.4375
vt 0.4375 0.4375
vn 0 0 -1
vn 1 0 0
vn -1 0 0
vn 0 1 0
vn 0 -1 0
usemtl m_4363006c-1712-a726-afa1-d5f712ff487b
f 12/28/7 15/27/7 13/26/7 10/25/7
f 11/32/8 12/31/8 10/30/8 9/29/8
f 15/36/9 16/35/9 14/34/9 13/33/9
f 14/40/10 9/39/10 10/38/10 13/37/10
f 15/44/11 12/43/11 11/42/11 16/41/11
o lower bar
v 0.0625 0.5625 0.0625
v 0.0625 0.5625 -0.5
v 0.0625 0.375 0.0625
v 0.0625 0.375 -0.5
v -0.0625 0.5625 -0.5
v -0.0625 0.5625 0.0625
v -0.0625 0.375 -0.5
v -0.0625 0.375 0.0625
vt 0.4375 0.5625
vt 0.5625 0.5625
vt 0.5625 0.375
vt 0.4375 0.375
vt 0 0.5625
vt 0.5625 0.5625
vt 0.5625 0.375
vt 0 0.375
vt 0 0.5625
vt 0.5625 0.5625
vt 0.5625 0.375
vt 0 0.375
vt 0.4375 1
vt 0.5625 1
vt 0.5625 0.4375
vt 0.4375 0.4375
vt 0.4375 1
vt 0.5625 1
vt 0.5625 0.4375
vt 0.4375 0.4375
vn 0 0 -1
vn 1 0 0
vn -1 0 0
vn 0 1 0
vn 0 -1 0
usemtl m_4363006c-1712-a726-afa1-d5f712ff487b
f 20/48/12 23/47/12 21/46/12 18/45/12
f 19/52/13 20/51/13 18/50/13 17/49/13
f 23/56/14 24/55/14 22/54/14 21/53/14
f 22/60/15 17/59/15 18/58/15 21/57/15
f 23/64/16 20/63/16 19/62/16 24/61/16
o top bar
v -0.0625 0.9375 0.5000000000000001
v 0.0625 0.9375 0.5000000000000001
v -0.0625 0.75 0.5000000000000001
v 0.0625 0.75 0.5000000000000001
v 0.06249999999999989 0.9375 -0.06249999999999989
v -0.06250000000000011 0.9375 -0.06249999999999989
v 0.06249999999999989 0.75 -0.06249999999999989
v -0.06250000000000011 0.75 -0.06249999999999989
vt 0 0.9375
vt 0.5625 0.9375
vt 0.5625 0.75
vt 0 0.75
vt 0.4375 0.9375
vt 0.5625 0.9375
vt 0.5625 0.75
vt 0.4375 0.75
vt 0 0.9375
vt 0.5625 0.9375
vt 0.5625 0.75
vt 0 0.75
vt 0.4375 0.4375
vt 0.4375 1
vt 0.5625 1
vt 0.5625 0.4375
vt 0.5625 1
vt 0.5625 0.4375
vt 0.4375 0.4375
vt 0.4375 1
vn 1 0 -2.220446049250313e-16
vn 2.220446049250313e-16 0 1
vn -1 0 2.220446049250313e-16
vn 0 1 0
vn 0 -1 0
usemtl m_4363006c-1712-a726-afa1-d5f712ff487b
f 28/68/17 31/67/17 29/66/17 26/65/17
f 27/72/18 28/71/18 26/70/18 25/69/18
f 32/76/19 27/75/19 25/74/19 30/73/19
f 30/80/20 25/79/20 26/78/20 29/77/20
usemtl none
f 31/84/21 28/83/21 27/82/21 32/81/21
o lower bar
v -0.0625 0.5625 0.5000000000000001
v 0.0625 0.5625 0.5000000000000001
v -0.0625 0.375 0.5000000000000001
v 0.0625 0.375 0.5000000000000001
v 0.06249999999999989 0.5625 -0.06249999999999989
v -0.06250000000000011 0.5625 -0.06249999999999989
v 0.06249999999999989 0.375 -0.06249999999999989
v -0.06250000000000011 0.375 -0.06249999999999989
vt 0 0.5625
vt 0.5625 0.5625
vt 0.5625 0.375
vt 0 0.375
vt 0.4375 0.5625
vt 0.5625 0.5625
vt 0.5625 0.375
vt 0.4375 0.375
vt 0 0.5625
vt 0.5625 0.5625
vt 0.5625 0.375
vt 0 0.375
vt 0.4375 0.4375
vt 0.4375 1
vt 0.5625 1
vt 0.5625 0.4375
vt 0.5625 1
vt 0.5625 0.4375
vt 0.4375 0.4375
vt 0.4375 1
vn 1 0 -2.220446049250313e-16
vn 2.220446049250313e-16 0 1
vn -1 0 2.220446049250313e-16
vn 0 1 0
vn 0 -1 0
usemtl m_4363006c-1712-a726-afa1-d5f712ff487b
f 36/88/22 39/87/22 37/86/22 34/85/22
f 35/92/23 36/91/23 34/90/23 33/89/23
f 40/96/24 35/95/24 33/94/24 38/93/24
f 38/100/25 33/99/25 34/98/25 37/97/25
usemtl none
f 39/104/26 36/103/26 35/102/26 40/101/26