# Made in Blockbench 5.0.4
mtllib materials.mtl

o top bar
v 0.0625 0.9375 0.0625
v 0.0625 0.9375 -0.5
v 0.0625 0.75 0.0625
v 0.0625 0.75 -0.5
v -0.0625 0.9375 -0.5
v -0.0625 0.9375 0.0625
v -0.0625 0.75 -0.5
v -0.0625 0.75 0.0625
vt 0.4375 0.9375
vt 0.5625 0.9375
vt 0.5625 0.75
vt 0.4375 0.75
vt 0 0.9375
vt 0.5625 0.9375
vt 0.5625 0.75
vt 0 0.75
vt 0 0.9375
vt 0.5625 0.9375
vt 0.5625 0.75
vt 0 0.75
vt 0.4375 1
vt 0.5625 1
vt 0.5625 0.4375
vt 0.4375 0.4375
vt 0.4375 1
vt 0.5625 1
vt 0.5625 0.4375
vt 0.4375 0.4375
vn 0 0 -1
vn 1 0 0
vn -1 0 0
vn 0 1 0
vn 0 -1 0
usemtl m_b0dd0b01-c78e-6e13-9760-30c982ccb98d
f 4/4/1 7/3/1 5/2/1 2/1/1
f 3/8/2 4/7/2 2/6/2 1/5/2
f 7/12/3 8/11/3 6/10/3 5/9/3
f 6/16/4 1/15/4 2/14/4 5/13/4
f 7/20/5 4/19/5 3/18/5 8/17/5
o lower bar
v 0.0625 0.5625 0.0625
v 0.0625 0.5625 -0.5
v 0.0625 0.375 0.0625
v 0.0625 0.375 -0.5
v -0.0625 0.5625 -0.5
v -0.0625 0.5625 0.0625
v -0.0625 0.375 -0.5
v -0.0625 0.375 0.0625
vt 0.4375 0.5625
vt 0.5625 0.5625
vt 0.5625 0.375
vt 0.4375 0.375
vt 0 0.5625
vt 0.5625 0.5625
vt 0.5625 0.375
vt 0 0.375
vt 0 0.5625
vt 0.5625 0.5625
vt 0.5625 0.375
vt 0 0.375
vt 0.4375 1
vt 0.5625 1
vt 0.5625 0.4375
vt 0.4375 0.4375
vt 0.4375 1
vt 0.5625 1
vt 0.5625 0.4375
vt 0.4375 0.4375
vn 0 0 -1
vn 1 0 0
vn -1 0 0
vn 0 1 0
vn 0 -1 0
usemtl m_b0dd0b01-c78e-6e13-9760-30c982ccb98d
f 12/24/6 15/23/6 13/22/6 10/21/6
f 11/28/7 12/27/7 10/26/7 9/25/7
f 15/32/8 16/31/8 14/30/8 13/29/8
f 14/36/9 9/35/9 10/34/9 13/33/9
f 15/40/10 12/39/10 11/38/10 16/37/10