# Made in Blockbench 4.12.5
mtllib materials.mtl

o cube
v 0.1875 0.4375 0.1875
v 0.1875 0.4375 -0.1875
v 0.1875 0 0.1875
v 0.1875 0 -0.1875
v -0.1875 0.4375 -0.1875
v -0.1875 0.4375 0.1875
v -0.1875 0 -0.1875
v -0.1875 0 0.1875
vt 0 0.875
vt 0.375 0.875
vt 0.375 0.4375
vt 0 0.4375
vt 0 0.875
vt 0.375 0.875
vt 0.375 0.4375
vt 0 0.4375
vt 0 0.875
vt 0.375 0.875
vt 0.375 0.4375
vt 0 0.4375
vt 0 0.875
vt 0.375 0.875
vt 0.375 0.4375
vt 0 0.4375
vt 0 0.4375
vt 0.375 0.4375
vt 0.375 0.0625
vt 0 0.0625
vt 0 0.4375
vt 0.375 0.4375
vt 0.375 0.0625
vt 0 0.0625
vn 0 0 -1
vn 1 0 0
vn 0 0 1
vn -1 0 0
vn 0 1 0
vn 0 -1 0
usemtl m_87cddf00-2f44-5b70-c1f9-d110a3f28c1c
f 4/4/1 7/3/1 5/2/1 2/1/1
f 3/8/2 4/7/2 2/6/2 1/5/2
f 8/12/3 3/11/3 1/10/3 6/9/3
f 7/16/4 8/15/4 6/14/4 5/13/4
f 6/20/5 1/19/5 2/18/5 5/17/5
f 7/24/6 4/23/6 3/22/6 8/21/6
o cube
v 0.125 0.5625 0.125
v 0.125 0.5625 -0.125
v 0.125 0.4375 0.125
v 0.125 0.4375 -0.125
v -0.125 0.5625 -0.125
v -0.125 0.5625 0.125
v -0.125 0.4375 -0.125
v -0.125 0.4375 0.125
vt 0.0625 1
vt 0.3125 1
vt 0.3125 0.875
vt 0.0625 0.875
vt 0.0625 1
vt 0.3125 1
vt 0.3125 0.875
vt 0.0625 0.875
vt 0.0625 1
vt 0.3125 1
vt 0.3125 0.875
vt 0.0625 0.875
vt 0.0625 1
vt 0.3125 1
vt 0.3125 0.875
vt 0.0625 0.875
vt 0.0625 0.375
vt 0.3125 0.375
vt 0.3125 0.125
vt 0.0625 0.125
vn 0 0 -1
vn 1 0 0
vn 0 0 1
vn -1 0 0
vn 0 1 0
usemtl m_87cddf00-2f44-5b70-c1f9-d110a3f28c1c
f 12/28/7 15/27/7 13/26/7 10/25/7
f 11/32/8 12/31/8 10/30/8 9/29/8
f 16/36/9 11/35/9 9/34/9 14/33/9
f 15/40/10 16/39/10 14/38/10 13/37/10
f 14/44/11 9/43/11 10/42/11 13/41/11
o cube
v 0.06629126073623882 0.6875 -0.06629126073623884
v 0.06629126073623882 0.6875 -0.06629126073623884
v 0.06629126073623882 0.5625 -0.06629126073623884
v 0.06629126073623882 0.5625 -0.06629126073623884
v -0.06629126073623882 0.6875 0.06629126073623884
v -0.06629126073623882 0.6875 0.06629126073623884
v -0.06629126073623882 0.5625 0.06629126073623884
v -0.06629126073623882 0.5625 0.06629126073623884
vt 0.875 0.9375
vt 0.6875 0.9375
vt 0.6875 0.8125
vt 0.875 0.8125
vt 0.6875 0.9375
vt 0.875 0.9375
vt 0.875 0.8125
vt 0.6875 0.8125
vn -0.7071067811865476 0 -0.7071067811865475
vn 0.7071067811865476 0 0.7071067811865475
usemtl m_87cddf00-2f44-5b70-c1f9-d110a3f28c1c
f 20/48/12 23/47/12 21/46/12 18/45/12
f 24/52/13 19/51/13 17/50/13 22/49/13
o cube
v 0.06629126073623884 0.6875 0.06629126073623882
v -0.06629126073623884 0.6875 -0.06629126073623882
v 0.06629126073623884 0.5625 0.06629126073623882
v -0.06629126073623884 0.5625 -0.06629126073623882
v -0.06629126073623884 0.6875 -0.06629126073623882
v 0.06629126073623884 0.6875 0.06629126073623882
v -0.06629126073623884 0.5625 -0.06629126073623882
v 0.06629126073623884 0.5625 0.06629126073623882
vt 0.6875 0.375
vt 0.875 0.375
vt 0.875 0.25
vt 0.6875 0.25
vt 0.875 0.375
vt 0.6875 0.375
vt 0.6875 0.25
vt 0.875 0.25
vn 0.7071067811865475 0 -0.7071067811865476
vn -0.7071067811865475 0 0.7071067811865476
usemtl m_87cddf00-2f44-5b70-c1f9-d110a3f28c1c
f 27/56/14 28/55/14 26/54/14 25/53/14
f 31/60/15 32/59/15 30/58/15 29/57/15